solid STL generated by MeshLab
  facet normal  3.488222e-02  9.858255e-01  1.641080e-01
    outer loop
      vertex   0.000000e+00  6.934442e-02  4.397946e-04
      vertex  -3.595079e-10  7.071354e-02 -7.784787e-03
      vertex  -3.345240e-03  7.071354e-02 -7.073734e-03
    endloop
  endfacet
  facet normal  9.861527e-02  9.858254e-01  1.357322e-01
    outer loop
      vertex   0.000000e+00  6.934442e-02  4.397946e-04
      vertex  -3.345240e-03  7.071354e-02 -7.073734e-03
      vertex  -6.112056e-03  7.071354e-02 -5.063523e-03
    endloop
  endfacet
  facet normal  1.452968e-01  9.858255e-01  8.388713e-02
    outer loop
      vertex   0.000000e+00  6.934442e-02  4.397946e-04
      vertex  -6.112056e-03  7.071354e-02 -5.063523e-03
      vertex  -7.822043e-03  7.071354e-02 -2.101739e-03
    endloop
  endfacet
  facet normal  1.668552e-01  9.858255e-01  1.753713e-02
    outer loop
      vertex   0.000000e+00  6.934442e-02  4.397946e-04
      vertex  -7.822043e-03  7.071354e-02 -2.101739e-03
      vertex  -8.179527e-03  7.071354e-02  1.299499e-03
    endloop
  endfacet
  facet normal  1.595628e-01  9.858255e-01 -5.184512e-02
    outer loop
      vertex   0.000000e+00  6.934442e-02  4.397946e-04
      vertex  -8.179527e-03  7.071354e-02  1.299499e-03
      vertex  -7.122696e-03  7.071354e-02  4.552087e-03
    endloop
  endfacet
  facet normal  1.246806e-01  9.858255e-01 -1.122629e-01
    outer loop
      vertex   0.000000e+00  6.934442e-02  4.397946e-04
      vertex  -7.122696e-03  7.071354e-02  4.552087e-03
      vertex  -4.834286e-03  7.071354e-02  7.093623e-03
    endloop
  endfacet
  facet normal  6.823982e-02  9.858255e-01 -1.532695e-01
    outer loop
      vertex   0.000000e+00  6.934442e-02  4.397946e-04
      vertex  -4.834286e-03  7.071354e-02  7.093623e-03
      vertex  -1.709985e-03  7.071354e-02  8.484649e-03
    endloop
  endfacet
  facet normal  0.000000e+00  9.858255e-01 -1.677742e-01
    outer loop
      vertex   0.000000e+00  6.934442e-02  4.397946e-04
      vertex  -1.709985e-03  7.071354e-02  8.484649e-03
      vertex   1.709989e-03  7.071354e-02  8.484649e-03
    endloop
  endfacet
  facet normal -6.823997e-02  9.858255e-01 -1.532694e-01
    outer loop
      vertex   0.000000e+00  6.934442e-02  4.397946e-04
      vertex   1.709989e-03  7.071354e-02  8.484649e-03
      vertex   4.834290e-03  7.071354e-02  7.093620e-03
    endloop
  endfacet
  facet normal -1.246806e-01  9.858255e-01 -1.122629e-01
    outer loop
      vertex   0.000000e+00  6.934442e-02  4.397946e-04
      vertex   4.834290e-03  7.071354e-02  7.093620e-03
      vertex   7.122699e-03  7.071354e-02  4.552084e-03
    endloop
  endfacet
  facet normal -1.595628e-01  9.858255e-01 -5.184505e-02
    outer loop
      vertex   0.000000e+00  6.934442e-02  4.397946e-04
      vertex   7.122699e-03  7.071354e-02  4.552084e-03
      vertex   8.179528e-03  7.071354e-02  1.299495e-03
    endloop
  endfacet
  facet normal -1.668551e-01  9.858254e-01  1.753729e-02
    outer loop
      vertex   0.000000e+00  6.934442e-02  4.397946e-04
      vertex   8.179528e-03  7.071354e-02  1.299495e-03
      vertex   7.822041e-03  7.071354e-02 -2.101743e-03
    endloop
  endfacet
  facet normal -1.452967e-01  9.858255e-01  8.388716e-02
    outer loop
      vertex   0.000000e+00  6.934442e-02  4.397946e-04
      vertex   7.822041e-03  7.071354e-02 -2.101743e-03
      vertex   6.112054e-03  7.071354e-02 -5.063526e-03
    endloop
  endfacet
  facet normal -9.861519e-02  9.858255e-01  1.357322e-01
    outer loop
      vertex   0.000000e+00  6.934442e-02  4.397946e-04
      vertex   6.112054e-03  7.071354e-02 -5.063526e-03
      vertex   3.345236e-03  7.071354e-02 -7.073736e-03
    endloop
  endfacet
  facet normal -3.488215e-02  9.858255e-01  1.641080e-01
    outer loop
      vertex   0.000000e+00  6.934442e-02  4.397946e-04
      vertex   3.345236e-03  7.071354e-02 -7.073736e-03
      vertex  -3.595079e-10  7.071354e-02 -7.784787e-03
    endloop
  endfacet
  facet normal -1.048569e-01  8.635088e-01 -4.933129e-01
    outer loop
      vertex  -1.222411e-02  6.556305e-02 -2.701601e-02
      vertex  -6.690479e-03  7.333540e-02 -1.458726e-02
      vertex  -7.190158e-10  7.333540e-02 -1.600937e-02
    endloop
  endfacet
  facet normal -1.048570e-01  8.635088e-01 -4.933128e-01
    outer loop
      vertex  -7.190158e-10  7.333540e-02 -1.600937e-02
      vertex  -1.313707e-09  6.556305e-02 -2.961432e-02
      vertex  -1.222411e-02  6.556305e-02 -2.701601e-02
    endloop
  endfacet
  facet normal -2.964401e-01  8.635088e-01 -4.080145e-01
    outer loop
      vertex  -2.233457e-02  6.556305e-02 -1.967033e-02
      vertex  -1.222411e-02  7.333540e-02 -1.056684e-02
      vertex  -6.690479e-03  7.333540e-02 -1.458726e-02
    endloop
  endfacet
  facet normal -2.964400e-01  8.635088e-01 -4.080145e-01
    outer loop
      vertex  -6.690479e-03  7.333540e-02 -1.458726e-02
      vertex  -1.222411e-02  6.556305e-02 -2.701601e-02
      vertex  -2.233457e-02  6.556305e-02 -1.967033e-02
    endloop
  endfacet
  facet normal -4.367659e-01  8.635088e-01 -2.521668e-01
    outer loop
      vertex  -2.858317e-02  6.556305e-02 -8.847432e-03
      vertex  -1.564409e-02  7.333540e-02 -4.643273e-03
      vertex  -1.222411e-02  7.333540e-02 -1.056684e-02
    endloop
  endfacet
  facet normal -4.367658e-01  8.635088e-01 -2.521668e-01
    outer loop
      vertex  -1.222411e-02  7.333540e-02 -1.056684e-02
      vertex  -2.233457e-02  6.556305e-02 -1.967033e-02
      vertex  -2.858317e-02  6.556305e-02 -8.847432e-03
    endloop
  endfacet
  facet normal -5.015709e-01  8.635088e-01 -5.271712e-02
    outer loop
      vertex  -2.988948e-02  6.556305e-02  3.581312e-03
      vertex  -1.635905e-02  7.333540e-02  2.159205e-03
      vertex  -1.564409e-02  7.333540e-02 -4.643273e-03
    endloop
  endfacet
  facet normal -5.015710e-01  8.635088e-01 -5.271711e-02
    outer loop
      vertex  -1.564409e-02  7.333540e-02 -4.643273e-03
      vertex  -2.858317e-02  6.556305e-02 -8.847432e-03
      vertex  -2.988948e-02  6.556305e-02  3.581312e-03
    endloop
  endfacet
  facet normal -4.796499e-01  8.635088e-01  1.558479e-01
    outer loop
      vertex  -2.602763e-02  6.556305e-02  1.546686e-02
      vertex  -1.424539e-02  7.333540e-02  8.664380e-03
      vertex  -1.635905e-02  7.333540e-02  2.159205e-03
    endloop
  endfacet
  facet normal -4.796498e-01  8.635088e-01  1.558478e-01
    outer loop
      vertex  -1.635905e-02  7.333540e-02  2.159205e-03
      vertex  -2.988948e-02  6.556305e-02  3.581312e-03
      vertex  -2.602763e-02  6.556305e-02  1.546686e-02
    endloop
  endfacet
  facet normal -3.747930e-01  8.635088e-01  3.374652e-01
    outer loop
      vertex  -1.766536e-02  6.556305e-02  2.475409e-02
      vertex  -9.668573e-03  7.333540e-02  1.374745e-02
      vertex  -1.424539e-02  7.333540e-02  8.664380e-03
    endloop
  endfacet
  facet normal -3.747930e-01  8.635088e-01  3.374652e-01
    outer loop
      vertex  -1.424539e-02  7.333540e-02  8.664380e-03
      vertex  -2.602763e-02  6.556305e-02  1.546686e-02
      vertex  -1.766536e-02  6.556305e-02  2.475409e-02
    endloop
  endfacet
  facet normal -2.051308e-01  8.635089e-01  4.607318e-01
    outer loop
      vertex  -6.248595e-03  6.556305e-02  2.983716e-02
      vertex  -3.419969e-03  7.333540e-02  1.652950e-02
      vertex  -9.668573e-03  7.333540e-02  1.374745e-02
    endloop
  endfacet
  facet normal -2.051309e-01  8.635088e-01  4.607318e-01
    outer loop
      vertex  -9.668573e-03  7.333540e-02  1.374745e-02
      vertex  -1.766536e-02  6.556305e-02  2.475409e-02
      vertex  -6.248595e-03  6.556305e-02  2.983716e-02
    endloop
  endfacet
  facet normal  1.380488e-07  8.635089e-01  5.043337e-01
    outer loop
      vertex   6.248610e-03  6.556305e-02  2.983716e-02
      vertex   3.419978e-03  7.333540e-02  1.652950e-02
      vertex  -3.419969e-03  7.333540e-02  1.652950e-02
    endloop
  endfacet
  facet normal  1.511132e-07  8.635088e-01  5.043337e-01
    outer loop
      vertex  -3.419969e-03  7.333540e-02  1.652950e-02
      vertex  -6.248595e-03  6.556305e-02  2.983716e-02
      vertex   6.248610e-03  6.556305e-02  2.983716e-02
    endloop
  endfacet
  facet normal  2.051311e-01  8.635088e-01  4.607319e-01
    outer loop
      vertex   1.766537e-02  6.556305e-02  2.475408e-02
      vertex   9.668579e-03  7.333540e-02  1.374745e-02
      vertex   3.419978e-03  7.333540e-02  1.652950e-02
    endloop
  endfacet
  facet normal  2.051312e-01  8.635088e-01  4.607317e-01
    outer loop
      vertex   3.419978e-03  7.333540e-02  1.652950e-02
      vertex   6.248610e-03  6.556305e-02  2.983716e-02
      vertex   1.766537e-02  6.556305e-02  2.475408e-02
    endloop
  endfacet
  facet normal  3.747931e-01  8.635088e-01  3.374651e-01
    outer loop
      vertex   2.602763e-02  6.556305e-02  1.546685e-02
      vertex   1.424540e-02  7.333540e-02  8.664373e-03
      vertex   9.668579e-03  7.333540e-02  1.374745e-02
    endloop
  endfacet
  facet normal  3.747931e-01  8.635088e-01  3.374651e-01
    outer loop
      vertex   9.668579e-03  7.333540e-02  1.374745e-02
      vertex   1.766537e-02  6.556305e-02  2.475408e-02
      vertex   2.602763e-02  6.556305e-02  1.546685e-02
    endloop
  endfacet
  facet normal  4.796500e-01  8.635088e-01  1.558475e-01
    outer loop
      vertex   2.988948e-02  6.556305e-02  3.581297e-03
      vertex   1.635905e-02  7.333540e-02  2.159196e-03
      vertex   1.424540e-02  7.333540e-02  8.664373e-03
    endloop
  endfacet
  facet normal  4.796500e-01  8.635088e-01  1.558476e-01
    outer loop
      vertex   1.424540e-02  7.333540e-02  8.664373e-03
      vertex   2.602763e-02  6.556305e-02  1.546685e-02
      vertex   2.988948e-02  6.556305e-02  3.581297e-03
    endloop
  endfacet
  facet normal  5.015709e-01  8.635088e-01 -5.271733e-02
    outer loop
      vertex   2.858316e-02  6.556305e-02 -8.847446e-03
      vertex   1.564408e-02  7.333540e-02 -4.643281e-03
      vertex   1.635905e-02  7.333540e-02  2.159196e-03
    endloop
  endfacet
  facet normal  5.015710e-01  8.635088e-01 -5.271731e-02
    outer loop
      vertex   1.635905e-02  7.333540e-02  2.159196e-03
      vertex   2.988948e-02  6.556305e-02  3.581297e-03
      vertex   2.858316e-02  6.556305e-02 -8.847446e-03
    endloop
  endfacet
  facet normal  4.367658e-01  8.635088e-01 -2.521670e-01
    outer loop
      vertex   2.233456e-02  6.556305e-02 -1.967034e-02
      vertex   1.222411e-02  7.333540e-02 -1.056685e-02
      vertex   1.564408e-02  7.333540e-02 -4.643281e-03
    endloop
  endfacet
  facet normal  4.367658e-01  8.635088e-01 -2.521670e-01
    outer loop
      vertex   1.564408e-02  7.333540e-02 -4.643281e-03
      vertex   2.858316e-02  6.556305e-02 -8.847446e-03
      vertex   2.233456e-02  6.556305e-02 -1.967034e-02
    endloop
  endfacet
  facet normal  2.964397e-01  8.635088e-01 -4.080147e-01
    outer loop
      vertex   1.222410e-02  6.556305e-02 -2.701601e-02
      vertex   6.690473e-03  7.333540e-02 -1.458727e-02
      vertex   1.222411e-02  7.333540e-02 -1.056685e-02
    endloop
  endfacet
  facet normal  2.964398e-01  8.635088e-01 -4.080147e-01
    outer loop
      vertex   1.222411e-02  7.333540e-02 -1.056685e-02
      vertex   2.233456e-02  6.556305e-02 -1.967034e-02
      vertex   1.222410e-02  6.556305e-02 -2.701601e-02
    endloop
  endfacet
  facet normal  1.048568e-01  8.635089e-01 -4.933129e-01
    outer loop
      vertex  -1.313707e-09  6.556305e-02 -2.961432e-02
      vertex  -7.190158e-10  7.333540e-02 -1.600937e-02
      vertex   6.690473e-03  7.333540e-02 -1.458727e-02
    endloop
  endfacet
  facet normal  1.048568e-01  8.635088e-01 -4.933129e-01
    outer loop
      vertex   6.690473e-03  7.333540e-02 -1.458727e-02
      vertex   1.222410e-02  6.556305e-02 -2.701601e-02
      vertex  -1.313707e-09  6.556305e-02 -2.961432e-02
    endloop
  endfacet
  facet normal -1.810379e-01  4.917380e-01 -8.517154e-01
    outer loop
      vertex  -1.564409e-02  5.099940e-02 -3.469739e-02
      vertex  -1.222411e-02  6.556305e-02 -2.701601e-02
      vertex  -1.313707e-09  6.556305e-02 -2.961432e-02
    endloop
  endfacet
  facet normal -1.810376e-01  4.917377e-01 -8.517155e-01
    outer loop
      vertex  -1.313707e-09  6.556305e-02 -2.961432e-02
      vertex  -1.681247e-09  5.099940e-02 -3.802264e-02
      vertex  -1.564409e-02  5.099940e-02 -3.469739e-02
    endloop
  endfacet
  facet normal -5.118102e-01  4.917379e-01 -7.044460e-01
    outer loop
      vertex  -2.858317e-02  5.099940e-02 -2.529659e-02
      vertex  -2.233457e-02  6.556305e-02 -1.967033e-02
      vertex  -1.222411e-02  6.556305e-02 -2.701601e-02
    endloop
  endfacet
  facet normal -5.118103e-01  4.917380e-01 -7.044460e-01
    outer loop
      vertex  -1.222411e-02  6.556305e-02 -2.701601e-02
      vertex  -1.564409e-02  5.099940e-02 -3.469739e-02
      vertex  -2.858317e-02  5.099940e-02 -2.529659e-02
    endloop
  endfacet
  facet normal -7.540858e-01  4.917378e-01 -4.353715e-01
    outer loop
      vertex  -3.657996e-02  5.099940e-02 -1.144574e-02
      vertex  -2.858317e-02  6.556305e-02 -8.847432e-03
      vertex  -2.233457e-02  6.556305e-02 -1.967033e-02
    endloop
  endfacet
  facet normal -7.540859e-01  4.917379e-01 -4.353715e-01
    outer loop
      vertex  -2.233457e-02  6.556305e-02 -1.967033e-02
      vertex  -2.858317e-02  5.099940e-02 -2.529659e-02
      vertex  -3.657996e-02  5.099940e-02 -1.144574e-02
    endloop
  endfacet
  facet normal -8.659733e-01  4.917378e-01 -9.101719e-02
    outer loop
      vertex  -3.825174e-02  5.099940e-02  4.460223e-03
      vertex  -2.988948e-02  6.556305e-02  3.581312e-03
      vertex  -2.858317e-02  6.556305e-02 -8.847432e-03
    endloop
  endfacet
  facet normal -8.659733e-01  4.917379e-01 -9.101717e-02
    outer loop
      vertex  -2.858317e-02  6.556305e-02 -8.847432e-03
      vertex  -3.657996e-02  5.099940e-02 -1.144574e-02
      vertex  -3.825174e-02  5.099940e-02  4.460223e-03
    endloop
  endfacet
  facet normal -8.281260e-01  4.917379e-01  2.690747e-01
    outer loop
      vertex  -3.330944e-02  5.099940e-02  1.967102e-02
      vertex  -2.602763e-02  6.556305e-02  1.546686e-02
      vertex  -2.988948e-02  6.556305e-02  3.581312e-03
    endloop
  endfacet
  facet normal -8.281260e-01  4.917378e-01  2.690746e-01
    outer loop
      vertex  -2.988948e-02  6.556305e-02  3.581312e-03
      vertex  -3.825174e-02  5.099940e-02  4.460223e-03
      vertex  -3.330944e-02  5.099940e-02  1.967102e-02
    endloop
  endfacet
  facet normal -6.470883e-01  4.917379e-01  5.826411e-01
    outer loop
      vertex  -2.260765e-02  5.099940e-02  3.155657e-02
      vertex  -1.766536e-02  6.556305e-02  2.475409e-02
      vertex  -2.602763e-02  6.556305e-02  1.546686e-02
    endloop
  endfacet
  facet normal -6.470881e-01  4.917379e-01  5.826411e-01
    outer loop
      vertex  -2.602763e-02  6.556305e-02  1.546686e-02
      vertex  -3.330944e-02  5.099940e-02  1.967102e-02
      vertex  -2.260765e-02  5.099940e-02  3.155657e-02
    endloop
  endfacet
  facet normal -3.541630e-01  4.917378e-01  7.954637e-01
    outer loop
      vertex  -7.996782e-03  5.099940e-02  3.806174e-02
      vertex  -6.248595e-03  6.556305e-02  2.983716e-02
      vertex  -1.766536e-02  6.556305e-02  2.475409e-02
    endloop
  endfacet
  facet normal -3.541631e-01  4.917379e-01  7.954637e-01
    outer loop
      vertex  -1.766536e-02  6.556305e-02  2.475409e-02
      vertex  -2.260765e-02  5.099940e-02  3.155657e-02
      vertex  -7.996782e-03  5.099940e-02  3.806174e-02
    endloop
  endfacet
  facet normal  2.784757e-07  4.917379e-01  8.707433e-01
    outer loop
      vertex   7.996800e-03  5.099940e-02  3.806173e-02
      vertex   6.248610e-03  6.556305e-02  2.983716e-02
      vertex  -6.248595e-03  6.556305e-02  2.983716e-02
    endloop
  endfacet
  facet normal  2.175978e-07  4.917379e-01  8.707433e-01
    outer loop
      vertex  -6.248595e-03  6.556305e-02  2.983716e-02
      vertex  -7.996782e-03  5.099940e-02  3.806174e-02
      vertex   7.996800e-03  5.099940e-02  3.806173e-02
    endloop
  endfacet
  facet normal  3.541634e-01  4.917381e-01  7.954633e-01
    outer loop
      vertex   2.260766e-02  5.099940e-02  3.155656e-02
      vertex   1.766537e-02  6.556305e-02  2.475408e-02
      vertex   6.248610e-03  6.556305e-02  2.983716e-02
    endloop
  endfacet
  facet normal  3.541633e-01  4.917379e-01  7.954635e-01
    outer loop
      vertex   6.248610e-03  6.556305e-02  2.983716e-02
      vertex   7.996800e-03  5.099940e-02  3.806173e-02
      vertex   2.260766e-02  5.099940e-02  3.155656e-02
    endloop
  endfacet
  facet normal  6.470885e-01  4.917379e-01  5.826408e-01
    outer loop
      vertex   3.330945e-02  5.099940e-02  1.967101e-02
      vertex   2.602763e-02  6.556305e-02  1.546685e-02
      vertex   1.766537e-02  6.556305e-02  2.475408e-02
    endloop
  endfacet
  facet normal  6.470885e-01  4.917380e-01  5.826406e-01
    outer loop
      vertex   1.766537e-02  6.556305e-02  2.475408e-02
      vertex   2.260766e-02  5.099940e-02  3.155656e-02
      vertex   3.330945e-02  5.099940e-02  1.967101e-02
    endloop
  endfacet
  facet normal  8.281262e-01  4.917378e-01  2.690742e-01
    outer loop
      vertex   3.825174e-02  5.099940e-02  4.460204e-03
      vertex   2.988948e-02  6.556305e-02  3.581297e-03
      vertex   2.602763e-02  6.556305e-02  1.546685e-02
    endloop
  endfacet
  facet normal  8.281262e-01  4.917378e-01  2.690742e-01
    outer loop
      vertex   2.602763e-02  6.556305e-02  1.546685e-02
      vertex   3.330945e-02  5.099940e-02  1.967101e-02
      vertex   3.825174e-02  5.099940e-02  4.460204e-03
    endloop
  endfacet
  facet normal  8.659731e-01  4.917380e-01 -9.101761e-02
    outer loop
      vertex   3.657995e-02  5.099940e-02 -1.144576e-02
      vertex   2.858316e-02  6.556305e-02 -8.847446e-03
      vertex   2.988948e-02  6.556305e-02  3.581297e-03
    endloop
  endfacet
  facet normal  8.659733e-01  4.917378e-01 -9.101742e-02
    outer loop
      vertex   2.988948e-02  6.556305e-02  3.581297e-03
      vertex   3.825174e-02  5.099940e-02  4.460204e-03
      vertex   3.657995e-02  5.099940e-02 -1.144576e-02
    endloop
  endfacet
  facet normal  7.540856e-01  4.917380e-01 -4.353718e-01
    outer loop
      vertex   2.858315e-02  5.099940e-02 -2.529661e-02
      vertex   2.233456e-02  6.556305e-02 -1.967034e-02
      vertex   2.858316e-02  6.556305e-02 -8.847446e-03
    endloop
  endfacet
  facet normal  7.540856e-01  4.917380e-01 -4.353719e-01
    outer loop
      vertex   2.858316e-02  6.556305e-02 -8.847446e-03
      vertex   3.657995e-02  5.099940e-02 -1.144576e-02
      vertex   2.858315e-02  5.099940e-02 -2.529661e-02
    endloop
  endfacet
  facet normal  5.118097e-01  4.917380e-01 -7.044463e-01
    outer loop
      vertex   1.564407e-02  5.099940e-02 -3.469740e-02
      vertex   1.222410e-02  6.556305e-02 -2.701601e-02
      vertex   2.233456e-02  6.556305e-02 -1.967034e-02
    endloop
  endfacet
  facet normal  5.118098e-01  4.917380e-01 -7.044463e-01
    outer loop
      vertex   2.233456e-02  6.556305e-02 -1.967034e-02
      vertex   2.858315e-02  5.099940e-02 -2.529661e-02
      vertex   1.564407e-02  5.099940e-02 -3.469740e-02
    endloop
  endfacet
  facet normal  1.810376e-01  4.917377e-01 -8.517156e-01
    outer loop
      vertex  -1.681247e-09  5.099940e-02 -3.802264e-02
      vertex  -1.313707e-09  6.556305e-02 -2.961432e-02
      vertex   1.222410e-02  6.556305e-02 -2.701601e-02
    endloop
  endfacet
  facet normal  1.810373e-01  4.917380e-01 -8.517154e-01
    outer loop
      vertex   1.222410e-02  6.556305e-02 -2.701601e-02
      vertex   1.564407e-02  5.099940e-02 -3.469740e-02
      vertex  -1.681247e-09  5.099940e-02 -3.802264e-02
    endloop
  endfacet
  facet normal -2.068214e-01  1.022684e-01 -9.730191e-01
    outer loop
      vertex  -1.635906e-02  3.427488e-02 -3.630324e-02
      vertex  -1.564409e-02  5.099940e-02 -3.469739e-02
      vertex  -1.681247e-09  5.099940e-02 -3.802264e-02
    endloop
  endfacet
  facet normal -2.068217e-01  1.022687e-01 -9.730189e-01
    outer loop
      vertex  -1.681247e-09  5.099940e-02 -3.802264e-02
      vertex  -1.758083e-09  3.427488e-02 -3.978046e-02
      vertex  -1.635906e-02  3.427488e-02 -3.630324e-02
    endloop
  endfacet
  facet normal -5.847036e-01  1.022684e-01 -8.047750e-01
    outer loop
      vertex  -2.988948e-02  3.427488e-02 -2.647280e-02
      vertex  -2.858317e-02  5.099940e-02 -2.529659e-02
      vertex  -1.564409e-02  5.099940e-02 -3.469739e-02
    endloop
  endfacet
  facet normal -5.847036e-01  1.022684e-01 -8.047751e-01
    outer loop
      vertex  -1.564409e-02  5.099940e-02 -3.469739e-02
      vertex  -1.635906e-02  3.427488e-02 -3.630324e-02
      vertex  -2.988948e-02  3.427488e-02 -2.647280e-02
    endloop
  endfacet
  facet normal -8.614848e-01  1.022686e-01 -4.973783e-01
    outer loop
      vertex  -3.825174e-02  3.427488e-02 -1.198894e-02
      vertex  -3.657996e-02  5.099940e-02 -1.144574e-02
      vertex  -2.858317e-02  5.099940e-02 -2.529659e-02
    endloop
  endfacet
  facet normal -8.614847e-01  1.022684e-01 -4.973784e-01
    outer loop
      vertex  -2.858317e-02  5.099940e-02 -2.529659e-02
      vertex  -2.988948e-02  3.427488e-02 -2.647280e-02
      vertex  -3.825174e-02  3.427488e-02 -1.198894e-02
    endloop
  endfacet
  facet normal -9.893075e-01  1.022687e-01 -1.039801e-01
    outer loop
      vertex  -3.999993e-02  3.427488e-02  4.643965e-03
      vertex  -3.825174e-02  5.099940e-02  4.460223e-03
      vertex  -3.657996e-02  5.099940e-02 -1.144574e-02
    endloop
  endfacet
  facet normal -9.893075e-01  1.022686e-01 -1.039802e-01
    outer loop
      vertex  -3.657996e-02  5.099940e-02 -1.144574e-02
      vertex  -3.825174e-02  3.427488e-02 -1.198894e-02
      vertex  -3.999993e-02  3.427488e-02  4.643965e-03
    endloop
  endfacet
  facet normal -9.460700e-01  1.022684e-01  3.073970e-01
    outer loop
      vertex  -3.483176e-02  3.427488e-02  2.054993e-02
      vertex  -3.330944e-02  5.099940e-02  1.967102e-02
      vertex  -3.825174e-02  5.099940e-02  4.460223e-03
    endloop
  endfacet
  facet normal -9.460698e-01  1.022687e-01  3.073972e-01
    outer loop
      vertex  -3.825174e-02  5.099940e-02  4.460223e-03
      vertex  -3.999993e-02  3.427488e-02  4.643965e-03
      vertex  -3.483176e-02  3.427488e-02  2.054993e-02
    endloop
  endfacet
  facet normal -7.392482e-01  1.022686e-01  6.656225e-01
    outer loop
      vertex  -2.364087e-02  3.427488e-02  3.297867e-02
      vertex  -2.260765e-02  5.099940e-02  3.155657e-02
      vertex  -3.330944e-02  5.099940e-02  1.967102e-02
    endloop
  endfacet
  facet normal -7.392484e-01  1.022684e-01  6.656224e-01
    outer loop
      vertex  -3.330944e-02  5.099940e-02  1.967102e-02
      vertex  -3.483176e-02  3.427488e-02  2.054993e-02
      vertex  -2.364087e-02  3.427488e-02  3.297867e-02
    endloop
  endfacet
  facet normal -4.046039e-01  1.022685e-01  9.087557e-01
    outer loop
      vertex  -8.362252e-03  3.427488e-02  3.978115e-02
      vertex  -7.996782e-03  5.099940e-02  3.806174e-02
      vertex  -2.260765e-02  5.099940e-02  3.155657e-02
    endloop
  endfacet
  facet normal -4.046038e-01  1.022686e-01  9.087557e-01
    outer loop
      vertex  -2.260765e-02  5.099940e-02  3.155657e-02
      vertex  -2.364087e-02  3.427488e-02  3.297867e-02
      vertex  -8.362252e-03  3.427488e-02  3.978115e-02
    endloop
  endfacet
  facet normal  2.299993e-07  1.022685e-01  9.947568e-01
    outer loop
      vertex   8.362272e-03  3.427488e-02  3.978114e-02
      vertex   7.996800e-03  5.099940e-02  3.806173e-02
      vertex  -7.996782e-03  5.099940e-02  3.806174e-02
    endloop
  endfacet
  facet normal  2.199472e-07  1.022685e-01  9.947569e-01
    outer loop
      vertex  -7.996782e-03  5.099940e-02  3.806174e-02
      vertex  -8.362252e-03  3.427488e-02  3.978115e-02
      vertex   8.362272e-03  3.427488e-02  3.978114e-02
    endloop
  endfacet
  facet normal  4.046040e-01  1.022684e-01  9.087555e-01
    outer loop
      vertex   2.364088e-02  3.427488e-02  3.297866e-02
      vertex   2.260766e-02  5.099940e-02  3.155656e-02
      vertex   7.996800e-03  5.099940e-02  3.806173e-02
    endloop
  endfacet
  facet normal  4.046042e-01  1.022685e-01  9.087555e-01
    outer loop
      vertex   7.996800e-03  5.099940e-02  3.806173e-02
      vertex   8.362272e-03  3.427488e-02  3.978114e-02
      vertex   2.364088e-02  3.427488e-02  3.297866e-02
    endloop
  endfacet
  facet normal  7.392487e-01  1.022685e-01  6.656219e-01
    outer loop
      vertex   3.483177e-02  3.427488e-02  2.054991e-02
      vertex   3.330945e-02  5.099940e-02  1.967101e-02
      vertex   2.260766e-02  5.099940e-02  3.155656e-02
    endloop
  endfacet
  facet normal  7.392487e-01  1.022684e-01  6.656220e-01
    outer loop
      vertex   2.260766e-02  5.099940e-02  3.155656e-02
      vertex   2.364088e-02  3.427488e-02  3.297866e-02
      vertex   3.483177e-02  3.427488e-02  2.054991e-02
    endloop
  endfacet
  facet normal  9.460701e-01  1.022687e-01  3.073964e-01
    outer loop
      vertex   3.999993e-02  3.427488e-02  4.643945e-03
      vertex   3.825174e-02  5.099940e-02  4.460204e-03
      vertex   3.330945e-02  5.099940e-02  1.967101e-02
    endloop
  endfacet
  facet normal  9.460701e-01  1.022685e-01  3.073966e-01
    outer loop
      vertex   3.330945e-02  5.099940e-02  1.967101e-02
      vertex   3.483177e-02  3.427488e-02  2.054991e-02
      vertex   3.999993e-02  3.427488e-02  4.643945e-03
    endloop
  endfacet
  facet normal  9.893075e-01  1.022684e-01 -1.039804e-01
    outer loop
      vertex   3.825174e-02  3.427488e-02 -1.198896e-02
      vertex   3.657995e-02  5.099940e-02 -1.144576e-02
      vertex   3.825174e-02  5.099940e-02  4.460204e-03
    endloop
  endfacet
  facet normal  9.893075e-01  1.022687e-01 -1.039807e-01
    outer loop
      vertex   3.825174e-02  5.099940e-02  4.460204e-03
      vertex   3.999993e-02  3.427488e-02  4.643945e-03
      vertex   3.825174e-02  3.427488e-02 -1.198896e-02
    endloop
  endfacet
  facet normal  8.614845e-01  1.022685e-01 -4.973787e-01
    outer loop
      vertex   2.988947e-02  3.427488e-02 -2.647282e-02
      vertex   2.858315e-02  5.099940e-02 -2.529661e-02
      vertex   3.657995e-02  5.099940e-02 -1.144576e-02
    endloop
  endfacet
  facet normal  8.614845e-01  1.022684e-01 -4.973786e-01
    outer loop
      vertex   3.657995e-02  5.099940e-02 -1.144576e-02
      vertex   3.825174e-02  3.427488e-02 -1.198896e-02
      vertex   2.988947e-02  3.427488e-02 -2.647282e-02
    endloop
  endfacet
  facet normal  5.847031e-01  1.022684e-01 -8.047754e-01
    outer loop
      vertex   1.635904e-02  3.427488e-02 -3.630324e-02
      vertex   1.564407e-02  5.099940e-02 -3.469740e-02
      vertex   2.858315e-02  5.099940e-02 -2.529661e-02
    endloop
  endfacet
  facet normal  5.847031e-01  1.022684e-01 -8.047754e-01
    outer loop
      vertex   2.858315e-02  5.099940e-02 -2.529661e-02
      vertex   2.988947e-02  3.427488e-02 -2.647282e-02
      vertex   1.635904e-02  3.427488e-02 -3.630324e-02
    endloop
  endfacet
  facet normal  2.068211e-01  1.022687e-01 -9.730191e-01
    outer loop
      vertex  -1.758083e-09  3.427488e-02 -3.978046e-02
      vertex  -1.681247e-09  5.099940e-02 -3.802264e-02
      vertex   1.564407e-02  5.099940e-02 -3.469740e-02
    endloop
  endfacet
  facet normal  2.068214e-01  1.022684e-01 -9.730190e-01
    outer loop
      vertex   1.564407e-02  5.099940e-02 -3.469740e-02
      vertex   1.635904e-02  3.427488e-02 -3.630324e-02
      vertex  -1.758083e-09  3.427488e-02 -3.978046e-02
    endloop
  endfacet
  facet normal -1.951274e-01 -3.452509e-01 -9.180017e-01
    outer loop
      vertex  -1.310433e-02  1.299796e-02 -2.899302e-02
      vertex  -1.635906e-02  3.427488e-02 -3.630324e-02
      vertex  -1.758083e-09  3.427488e-02 -3.978046e-02
    endloop
  endfacet
  facet normal -1.951272e-01 -3.452511e-01 -9.180017e-01
    outer loop
      vertex  -1.758083e-09  3.427488e-02 -3.978046e-02
      vertex  -1.322787e-09  1.299796e-02 -3.177843e-02
      vertex  -1.310433e-02  1.299796e-02 -2.899302e-02
    endloop
  endfacet
  facet normal -5.516427e-01 -3.452511e-01 -7.592707e-01
    outer loop
      vertex  -2.394281e-02  1.299796e-02 -2.111840e-02
      vertex  -2.988948e-02  3.427488e-02 -2.647280e-02
      vertex  -1.635906e-02  3.427488e-02 -3.630324e-02
    endloop
  endfacet
  facet normal -5.516429e-01 -3.452509e-01 -7.592706e-01
    outer loop
      vertex  -1.635906e-02  3.427488e-02 -3.630324e-02
      vertex  -1.310433e-02  1.299796e-02 -2.899302e-02
      vertex  -2.394281e-02  1.299796e-02 -2.111840e-02
    endloop
  endfacet
  facet normal -8.127737e-01 -3.452514e-01 -4.692551e-01
    outer loop
      vertex  -3.064135e-02  1.299796e-02 -9.516178e-03
      vertex  -3.825174e-02  3.427488e-02 -1.198894e-02
      vertex  -2.988948e-02  3.427488e-02 -2.647280e-02
    endloop
  endfacet
  facet normal -8.127741e-01 -3.452511e-01 -4.692549e-01
    outer loop
      vertex  -2.988948e-02  3.427488e-02 -2.647280e-02
      vertex  -2.394281e-02  1.299796e-02 -2.111840e-02
      vertex  -3.064135e-02  1.299796e-02 -9.516178e-03
    endloop
  endfacet
  facet normal -9.333690e-01 -3.452514e-01 -9.810086e-02
    outer loop
      vertex  -3.204172e-02  1.299796e-02  3.807523e-03
      vertex  -3.999993e-02  3.427488e-02  4.643965e-03
      vertex  -3.825174e-02  3.427488e-02 -1.198894e-02
    endloop
  endfacet
  facet normal -9.333690e-01 -3.452514e-01 -9.810095e-02
    outer loop
      vertex  -3.825174e-02  3.427488e-02 -1.198894e-02
      vertex  -3.064135e-02  1.299796e-02 -9.516178e-03
      vertex  -3.204172e-02  1.299796e-02  3.807523e-03
    endloop
  endfacet
  facet normal -8.925762e-01 -3.452512e-01  2.900161e-01
    outer loop
      vertex  -2.790179e-02  1.299796e-02  1.654891e-02
      vertex  -3.483176e-02  3.427488e-02  2.054993e-02
      vertex  -3.999993e-02  3.427488e-02  4.643965e-03
    endloop
  endfacet
  facet normal -8.925762e-01 -3.452514e-01  2.900159e-01
    outer loop
      vertex  -3.999993e-02  3.427488e-02  4.643965e-03
      vertex  -3.204172e-02  1.299796e-02  3.807523e-03
      vertex  -2.790179e-02  1.299796e-02  1.654891e-02
    endloop
  endfacet
  facet normal -6.974490e-01 -3.452513e-01  6.279860e-01
    outer loop
      vertex  -1.893739e-02  1.299796e-02  2.650489e-02
      vertex  -2.364087e-02  3.427488e-02  3.297867e-02
      vertex  -3.483176e-02  3.427488e-02  2.054993e-02
    endloop
  endfacet
  facet normal -6.974488e-01 -3.452512e-01  6.279863e-01
    outer loop
      vertex  -3.483176e-02  3.427488e-02  2.054993e-02
      vertex  -2.790179e-02  1.299796e-02  1.654891e-02
      vertex  -1.893739e-02  1.299796e-02  2.650489e-02
    endloop
  endfacet
  facet normal -3.817263e-01 -3.452513e-01  8.573719e-01
    outer loop
      vertex  -6.698538e-03  1.299796e-02  3.195397e-02
      vertex  -8.362252e-03  3.427488e-02  3.978115e-02
      vertex  -2.364087e-02  3.427488e-02  3.297867e-02
    endloop
  endfacet
  facet normal -3.817265e-01 -3.452514e-01  8.573719e-01
    outer loop
      vertex  -2.364087e-02  3.427488e-02  3.297867e-02
      vertex  -1.893739e-02  1.299796e-02  2.650489e-02
      vertex  -6.698538e-03  1.299796e-02  3.195397e-02
    endloop
  endfacet
  facet normal  2.302756e-07 -3.452513e-01  9.385102e-01
    outer loop
      vertex   6.698553e-03  1.299796e-02  3.195397e-02
      vertex   8.362272e-03  3.427488e-02  3.978114e-02
      vertex  -8.362252e-03  3.427488e-02  3.978115e-02
    endloop
  endfacet
  facet normal  2.874691e-07 -3.452513e-01  9.385102e-01
    outer loop
      vertex  -8.362252e-03  3.427488e-02  3.978115e-02
      vertex  -6.698538e-03  1.299796e-02  3.195397e-02
      vertex   6.698553e-03  1.299796e-02  3.195397e-02
    endloop
  endfacet
  facet normal  3.817268e-01 -3.452513e-01  8.573717e-01
    outer loop
      vertex   1.893741e-02  1.299796e-02  2.650488e-02
      vertex   2.364088e-02  3.427488e-02  3.297866e-02
      vertex   8.362272e-03  3.427488e-02  3.978114e-02
    endloop
  endfacet
  facet normal  3.817267e-01 -3.452513e-01  8.573716e-01
    outer loop
      vertex   8.362272e-03  3.427488e-02  3.978114e-02
      vertex   6.698553e-03  1.299796e-02  3.195397e-02
      vertex   1.893741e-02  1.299796e-02  2.650488e-02
    endloop
  endfacet
  facet normal  6.974494e-01 -3.452511e-01  6.279858e-01
    outer loop
      vertex   2.790181e-02  1.299796e-02  1.654890e-02
      vertex   3.483177e-02  3.427488e-02  2.054991e-02
      vertex   2.364088e-02  3.427488e-02  3.297866e-02
    endloop
  endfacet
  facet normal  6.974491e-01 -3.452512e-01  6.279858e-01
    outer loop
      vertex   2.364088e-02  3.427488e-02  3.297866e-02
      vertex   1.893741e-02  1.299796e-02  2.650488e-02
      vertex   2.790181e-02  1.299796e-02  1.654890e-02
    endloop
  endfacet
  facet normal  8.925764e-01 -3.452511e-01  2.900154e-01
    outer loop
      vertex   3.204173e-02  1.299796e-02  3.807507e-03
      vertex   3.999993e-02  3.427488e-02  4.643945e-03
      vertex   3.483177e-02  3.427488e-02  2.054991e-02
    endloop
  endfacet
  facet normal  8.925765e-01 -3.452510e-01  2.900153e-01
    outer loop
      vertex   3.483177e-02  3.427488e-02  2.054991e-02
      vertex   2.790181e-02  1.299796e-02  1.654890e-02
      vertex   3.204173e-02  1.299796e-02  3.807507e-03
    endloop
  endfacet
  facet normal  9.333690e-01 -3.452512e-01 -9.810127e-02
    outer loop
      vertex   3.064135e-02  1.299796e-02 -9.516193e-03
      vertex   3.825174e-02  3.427488e-02 -1.198896e-02
      vertex   3.999993e-02  3.427488e-02  4.643945e-03
    endloop
  endfacet
  facet normal  9.333690e-01 -3.452510e-01 -9.810144e-02
    outer loop
      vertex   3.999993e-02  3.427488e-02  4.643945e-03
      vertex   3.204173e-02  1.299796e-02  3.807507e-03
      vertex   3.064135e-02  1.299796e-02 -9.516193e-03
    endloop
  endfacet
  facet normal  8.127737e-01 -3.452511e-01 -4.692554e-01
    outer loop
      vertex   2.394280e-02  1.299796e-02 -2.111842e-02
      vertex   2.988947e-02  3.427488e-02 -2.647282e-02
      vertex   3.825174e-02  3.427488e-02 -1.198896e-02
    endloop
  endfacet
  facet normal  8.127738e-01 -3.452512e-01 -4.692552e-01
    outer loop
      vertex   3.825174e-02  3.427488e-02 -1.198896e-02
      vertex   3.064135e-02  1.299796e-02 -9.516193e-03
      vertex   2.394280e-02  1.299796e-02 -2.111842e-02
    endloop
  endfacet
  facet normal  5.516424e-01 -3.452511e-01 -7.592710e-01
    outer loop
      vertex   1.310432e-02  1.299796e-02 -2.899303e-02
      vertex   1.635904e-02  3.427488e-02 -3.630324e-02
      vertex   2.988947e-02  3.427488e-02 -2.647282e-02
    endloop
  endfacet
  facet normal  5.516424e-01 -3.452510e-01 -7.592710e-01
    outer loop
      vertex   2.988947e-02  3.427488e-02 -2.647282e-02
      vertex   2.394280e-02  1.299796e-02 -2.111842e-02
      vertex   1.310432e-02  1.299796e-02 -2.899303e-02
    endloop
  endfacet
  facet normal  1.951271e-01 -3.452511e-01 -9.180017e-01
    outer loop
      vertex  -1.322787e-09  1.299796e-02 -3.177843e-02
      vertex  -1.758083e-09  3.427488e-02 -3.978046e-02
      vertex   1.635904e-02  3.427488e-02 -3.630324e-02
    endloop
  endfacet
  facet normal  1.951270e-01 -3.452510e-01 -9.180018e-01
    outer loop
      vertex   1.635904e-02  3.427488e-02 -3.630324e-02
      vertex   1.310432e-02  1.299796e-02 -2.899303e-02
      vertex  -1.322787e-09  1.299796e-02 -3.177843e-02
    endloop
  endfacet
  facet normal -1.494081e-01 -6.954096e-01 -7.029102e-01
    outer loop
      vertex  -8.483717e-03  1.515210e-03 -1.861494e-02
      vertex  -1.310433e-02  1.299796e-02 -2.899302e-02
      vertex  -1.322787e-09  1.299796e-02 -3.177843e-02
    endloop
  endfacet
  facet normal -1.494080e-01 -6.954097e-01 -7.029101e-01
    outer loop
      vertex  -1.322787e-09  1.299796e-02 -3.177843e-02
      vertex  -7.881582e-10  1.515210e-03 -2.041821e-02
      vertex  -8.483717e-03  1.515210e-03 -1.861494e-02
    endloop
  endfacet
  facet normal -4.223908e-01 -6.954094e-01 -5.813705e-01
    outer loop
      vertex  -1.550052e-02  1.515210e-03 -1.351693e-02
      vertex  -2.394281e-02  1.299796e-02 -2.111840e-02
      vertex  -1.310433e-02  1.299796e-02 -2.899302e-02
    endloop
  endfacet
  facet normal -4.223905e-01 -6.954095e-01 -5.813705e-01
    outer loop
      vertex  -1.310433e-02  1.299796e-02 -2.899302e-02
      vertex  -8.483717e-03  1.515210e-03 -1.861494e-02
      vertex  -1.550052e-02  1.515210e-03 -1.351693e-02
    endloop
  endfacet
  facet normal -6.223381e-01 -6.954092e-01 -3.593068e-01
    outer loop
      vertex  -1.983714e-02  1.515205e-03 -6.005680e-03
      vertex  -3.064135e-02  1.299796e-02 -9.516178e-03
      vertex  -2.394281e-02  1.299796e-02 -2.111840e-02
    endloop
  endfacet
  facet normal -6.223376e-01 -6.954094e-01 -3.593070e-01
    outer loop
      vertex  -2.394281e-02  1.299796e-02 -2.111840e-02
      vertex  -1.550052e-02  1.515210e-03 -1.351693e-02
      vertex  -1.983714e-02  1.515205e-03 -6.005680e-03
    endloop
  endfacet
  facet normal -7.146773e-01 -6.954092e-01 -7.511553e-02
    outer loop
      vertex  -2.074374e-02  1.515205e-03  2.620055e-03
      vertex  -3.204172e-02  1.299796e-02  3.807523e-03
      vertex  -3.064135e-02  1.299796e-02 -9.516178e-03
    endloop
  endfacet
  facet normal -7.146774e-01 -6.954092e-01 -7.511552e-02
    outer loop
      vertex  -3.064135e-02  1.299796e-02 -9.516178e-03
      vertex  -1.983714e-02  1.515205e-03 -6.005680e-03
      vertex  -2.074374e-02  1.515205e-03  2.620055e-03
    endloop
  endfacet
  facet normal -6.834424e-01 -6.954092e-01  2.220641e-01
    outer loop
      vertex  -1.806356e-02  1.515205e-03  1.086880e-02
      vertex  -2.790179e-02  1.299796e-02  1.654891e-02
      vertex  -3.204172e-02  1.299796e-02  3.807523e-03
    endloop
  endfacet
  facet normal -6.834424e-01 -6.954092e-01  2.220642e-01
    outer loop
      vertex  -3.204172e-02  1.299796e-02  3.807523e-03
      vertex  -2.074374e-02  1.515205e-03  2.620055e-03
      vertex  -1.806356e-02  1.515205e-03  1.086880e-02
    endloop
  endfacet
  facet normal -5.340341e-01 -6.954091e-01  4.808469e-01
    outer loop
      vertex  -1.226003e-02  1.515205e-03  1.731428e-02
      vertex  -1.893739e-02  1.299796e-02  2.650489e-02
      vertex  -2.790179e-02  1.299796e-02  1.654891e-02
    endloop
  endfacet
  facet normal -5.340342e-01 -6.954093e-01  4.808465e-01
    outer loop
      vertex  -2.790179e-02  1.299796e-02  1.654891e-02
      vertex  -1.806356e-02  1.515205e-03  1.086880e-02
      vertex  -1.226003e-02  1.515205e-03  1.731428e-02
    endloop
  endfacet
  facet normal -2.922867e-01 -6.954091e-01  6.564867e-01
    outer loop
      vertex  -4.336618e-03  1.515205e-03  2.084201e-02
      vertex  -6.698538e-03  1.299796e-02  3.195397e-02
      vertex  -1.893739e-02  1.299796e-02  2.650489e-02
    endloop
  endfacet
  facet normal -2.922866e-01 -6.954091e-01  6.564866e-01
    outer loop
      vertex  -1.893739e-02  1.299796e-02  2.650489e-02
      vertex  -1.226003e-02  1.515205e-03  1.731428e-02
      vertex  -4.336618e-03  1.515205e-03  2.084201e-02
    endloop
  endfacet
  facet normal  2.039297e-07 -6.954091e-01  7.186141e-01
    outer loop
      vertex   4.336629e-03  1.515205e-03  2.084201e-02
      vertex   6.698553e-03  1.299796e-02  3.195397e-02
      vertex  -6.698538e-03  1.299796e-02  3.195397e-02
    endloop
  endfacet
  facet normal  1.049997e-07 -6.954091e-01  7.186140e-01
    outer loop
      vertex  -6.698538e-03  1.299796e-02  3.195397e-02
      vertex  -4.336618e-03  1.515205e-03  2.084201e-02
      vertex   4.336629e-03  1.515205e-03  2.084201e-02
    endloop
  endfacet
  facet normal  2.922868e-01 -6.954092e-01  6.564865e-01
    outer loop
      vertex   1.226003e-02  1.515205e-03  1.731427e-02
      vertex   1.893741e-02  1.299796e-02  2.650488e-02
      vertex   6.698553e-03  1.299796e-02  3.195397e-02
    endloop
  endfacet
  facet normal  2.922872e-01 -6.954091e-01  6.564865e-01
    outer loop
      vertex   6.698553e-03  1.299796e-02  3.195397e-02
      vertex   4.336629e-03  1.515205e-03  2.084201e-02
      vertex   1.226003e-02  1.515205e-03  1.731427e-02
    endloop
  endfacet
  facet normal  5.340342e-01 -6.954093e-01  4.808464e-01
    outer loop
      vertex   1.806357e-02  1.515205e-03  1.086879e-02
      vertex   2.790181e-02  1.299796e-02  1.654890e-02
      vertex   1.893741e-02  1.299796e-02  2.650488e-02
    endloop
  endfacet
  facet normal  5.340343e-01 -6.954093e-01  4.808465e-01
    outer loop
      vertex   1.893741e-02  1.299796e-02  2.650488e-02
      vertex   1.226003e-02  1.515205e-03  1.731427e-02
      vertex   1.806357e-02  1.515205e-03  1.086879e-02
    endloop
  endfacet
  facet normal  6.834425e-01 -6.954094e-01  2.220637e-01
    outer loop
      vertex   2.074375e-02  1.515205e-03  2.620044e-03
      vertex   3.204173e-02  1.299796e-02  3.807507e-03
      vertex   2.790181e-02  1.299796e-02  1.654890e-02
    endloop
  endfacet
  facet normal  6.834425e-01 -6.954093e-01  2.220637e-01
    outer loop
      vertex   2.790181e-02  1.299796e-02  1.654890e-02
      vertex   1.806357e-02  1.515205e-03  1.086879e-02
      vertex   2.074375e-02  1.515205e-03  2.620044e-03
    endloop
  endfacet
  facet normal  7.146773e-01 -6.954092e-01 -7.511587e-02
    outer loop
      vertex   1.983714e-02  1.515205e-03 -6.005689e-03
      vertex   3.064135e-02  1.299796e-02 -9.516193e-03
      vertex   3.204173e-02  1.299796e-02  3.807507e-03
    endloop
  endfacet
  facet normal  7.146772e-01 -6.954094e-01 -7.511573e-02
    outer loop
      vertex   3.204173e-02  1.299796e-02  3.807507e-03
      vertex   2.074375e-02  1.515205e-03  2.620044e-03
      vertex   1.983714e-02  1.515205e-03 -6.005689e-03
    endloop
  endfacet
  facet normal  6.223378e-01 -6.954095e-01 -3.593069e-01
    outer loop
      vertex   1.550052e-02  1.515210e-03 -1.351694e-02
      vertex   2.394280e-02  1.299796e-02 -2.111842e-02
      vertex   3.064135e-02  1.299796e-02 -9.516193e-03
    endloop
  endfacet
  facet normal  6.223377e-01 -6.954092e-01 -3.593074e-01
    outer loop
      vertex   3.064135e-02  1.299796e-02 -9.516193e-03
      vertex   1.983714e-02  1.515205e-03 -6.005689e-03
      vertex   1.550052e-02  1.515210e-03 -1.351694e-02
    endloop
  endfacet
  facet normal  4.223903e-01 -6.954096e-01 -5.813708e-01
    outer loop
      vertex   8.483710e-03  1.515210e-03 -1.861494e-02
      vertex   1.310432e-02  1.299796e-02 -2.899303e-02
      vertex   2.394280e-02  1.299796e-02 -2.111842e-02
    endloop
  endfacet
  facet normal  4.223901e-01 -6.954095e-01 -5.813711e-01
    outer loop
      vertex   2.394280e-02  1.299796e-02 -2.111842e-02
      vertex   1.550052e-02  1.515210e-03 -1.351694e-02
      vertex   8.483710e-03  1.515210e-03 -1.861494e-02
    endloop
  endfacet
  facet normal  1.494079e-01 -6.954097e-01 -7.029102e-01
    outer loop
      vertex  -7.881582e-10  1.515210e-03 -2.041821e-02
      vertex  -1.322787e-09  1.299796e-02 -3.177843e-02
      vertex   1.310432e-02  1.299796e-02 -2.899303e-02
    endloop
  endfacet
  facet normal  1.494079e-01 -6.954097e-01 -7.029101e-01
    outer loop
      vertex   1.310432e-02  1.299796e-02 -2.899303e-02
      vertex   8.483710e-03  1.515210e-03 -1.861494e-02
      vertex  -7.881582e-10  1.515210e-03 -2.041821e-02
    endloop
  endfacet
  facet normal  5.844250e-02 -9.596805e-01  2.749506e-01
    outer loop
      vertex   1.235742e-10  2.833101e-03  4.397951e-04
      vertex  -4.241859e-03 -1.548310e-04 -9.087574e-03
      vertex  -3.322920e-10 -1.548310e-04 -9.989208e-03
    endloop
  endfacet
  facet normal  1.652224e-01 -9.596805e-01  2.274091e-01
    outer loop
      vertex   1.235742e-10  2.833101e-03  4.397951e-04
      vertex  -7.750261e-03 -1.548310e-04 -6.538569e-03
      vertex  -4.241859e-03 -1.548310e-04 -9.087574e-03
    endloop
  endfacet
  facet normal  2.434339e-01 -9.596805e-01  1.405465e-01
    outer loop
      vertex   1.235742e-10  2.833101e-03  4.397951e-04
      vertex  -9.918572e-03 -1.548310e-04 -2.782942e-03
      vertex  -7.750261e-03 -1.548310e-04 -6.538569e-03
    endloop
  endfacet
  facet normal  2.795533e-01 -9.596805e-01  2.938221e-02
    outer loop
      vertex   1.235742e-10  2.833101e-03  4.397951e-04
      vertex  -1.037187e-02 -1.548310e-04  1.529925e-03
      vertex  -9.918572e-03 -1.548310e-04 -2.782942e-03
    endloop
  endfacet
  facet normal  2.673354e-01 -9.596805e-01 -8.686267e-02
    outer loop
      vertex   1.235742e-10  2.833101e-03  4.397951e-04
      vertex  -9.031780e-03 -1.548310e-04  5.654299e-03
      vertex  -1.037187e-02 -1.548310e-04  1.529925e-03
    endloop
  endfacet
  facet normal  2.088930e-01 -9.596805e-01 -1.880880e-01
    outer loop
      vertex   1.235742e-10  2.833101e-03  4.397951e-04
      vertex  -6.130013e-03 -1.548310e-04  8.877039e-03
      vertex  -9.031780e-03 -1.548310e-04  5.654299e-03
    endloop
  endfacet
  facet normal  1.143308e-01 -9.596806e-01 -2.567913e-01
    outer loop
      vertex   1.235742e-10  2.833101e-03  4.397951e-04
      vertex  -2.168309e-03 -1.548310e-04  1.064090e-02
      vertex  -6.130013e-03 -1.548310e-04  8.877039e-03
    endloop
  endfacet
  facet normal -3.946006e-08 -9.596805e-01 -2.810931e-01
    outer loop
      vertex   1.235742e-10  2.833101e-03  4.397951e-04
      vertex   2.168315e-03 -1.548310e-04  1.064090e-02
      vertex  -2.168309e-03 -1.548310e-04  1.064090e-02
    endloop
  endfacet
  facet normal -1.143310e-01 -9.596805e-01 -2.567913e-01
    outer loop
      vertex   1.235742e-10  2.833101e-03  4.397951e-04
      vertex   6.130018e-03 -1.548310e-04  8.877034e-03
      vertex   2.168315e-03 -1.548310e-04  1.064090e-02
    endloop
  endfacet
  facet normal -2.088930e-01 -9.596805e-01 -1.880879e-01
    outer loop
      vertex   1.235742e-10  2.833101e-03  4.397951e-04
      vertex   9.031785e-03 -1.548310e-04  5.654294e-03
      vertex   6.130018e-03 -1.548310e-04  8.877034e-03
    endloop
  endfacet
  facet normal -2.673355e-01 -9.596806e-01 -8.686244e-02
    outer loop
      vertex   1.235742e-10  2.833101e-03  4.397951e-04
      vertex   1.037187e-02 -1.548310e-04  1.529920e-03
      vertex   9.031785e-03 -1.548310e-04  5.654294e-03
    endloop
  endfacet
  facet normal -2.795532e-01 -9.596806e-01  2.938229e-02
    outer loop
      vertex   1.235742e-10  2.833101e-03  4.397951e-04
      vertex   9.918572e-03 -1.548310e-04 -2.782947e-03
      vertex   1.037187e-02 -1.548310e-04  1.529920e-03
    endloop
  endfacet
  facet normal -2.434337e-01 -9.596805e-01  1.405466e-01
    outer loop
      vertex   1.235742e-10  2.833101e-03  4.397951e-04
      vertex   7.750259e-03 -1.548310e-04 -6.538574e-03
      vertex   9.918572e-03 -1.548310e-04 -2.782947e-03
    endloop
  endfacet
  facet normal -1.652222e-01 -9.596805e-01  2.274093e-01
    outer loop
      vertex   1.235742e-10  2.833101e-03  4.397951e-04
      vertex   4.241854e-03 -1.548310e-04 -9.087575e-03
      vertex   7.750259e-03 -1.548310e-04 -6.538574e-03
    endloop
  endfacet
  facet normal -5.844251e-02 -9.596806e-01  2.749506e-01
    outer loop
      vertex   1.235742e-10  2.833101e-03  4.397951e-04
      vertex  -3.322920e-10 -1.548310e-04 -9.989208e-03
      vertex   4.241854e-03 -1.548310e-04 -9.087575e-03
    endloop
  endfacet
  facet normal  6.442437e-02  9.507807e-01  3.030930e-01
    outer loop
      vertex  -6.690479e-03  7.333540e-02 -1.458726e-02
      vertex  -3.345240e-03  7.071354e-02 -7.073734e-03
      vertex  -3.595079e-10  7.071354e-02 -7.784787e-03
    endloop
  endfacet
  facet normal  6.442443e-02  9.507808e-01  3.030930e-01
    outer loop
      vertex  -3.595079e-10  7.071354e-02 -7.784787e-03
      vertex  -7.190158e-10  7.333540e-02 -1.600937e-02
      vertex  -6.690479e-03  7.333540e-02 -1.458726e-02
    endloop
  endfacet
  facet normal  1.821338e-01  9.507808e-01  2.506855e-01
    outer loop
      vertex  -1.222411e-02  7.333540e-02 -1.056684e-02
      vertex  -6.112056e-03  7.071354e-02 -5.063523e-03
      vertex  -3.345240e-03  7.071354e-02 -7.073734e-03
    endloop
  endfacet
  facet normal  1.821338e-01  9.507808e-01  2.506854e-01
    outer loop
      vertex  -3.345240e-03  7.071354e-02 -7.073734e-03
      vertex  -6.690479e-03  7.333540e-02 -1.458726e-02
      vertex  -1.222411e-02  7.333540e-02 -1.056684e-02
    endloop
  endfacet
  facet normal  2.683503e-01  9.507808e-01  1.549322e-01
    outer loop
      vertex  -1.564409e-02  7.333540e-02 -4.643273e-03
      vertex  -7.822043e-03  7.071354e-02 -2.101739e-03
      vertex  -6.112056e-03  7.071354e-02 -5.063523e-03
    endloop
  endfacet
  facet normal  2.683504e-01  9.507808e-01  1.549322e-01
    outer loop
      vertex  -6.112056e-03  7.071354e-02 -5.063523e-03
      vertex  -1.222411e-02  7.333540e-02 -1.056684e-02
      vertex  -1.564409e-02  7.333540e-02 -4.643273e-03
    endloop
  endfacet
  facet normal  3.081668e-01  9.507808e-01  3.238951e-02
    outer loop
      vertex  -1.635905e-02  7.333540e-02  2.159205e-03
      vertex  -8.179527e-03  7.071354e-02  1.299499e-03
      vertex  -7.822043e-03  7.071354e-02 -2.101739e-03
    endloop
  endfacet
  facet normal  3.081669e-01  9.507808e-01  3.238954e-02
    outer loop
      vertex  -7.822043e-03  7.071354e-02 -2.101739e-03
      vertex  -1.564409e-02  7.333540e-02 -4.643273e-03
      vertex  -1.635905e-02  7.333540e-02  2.159205e-03
    endloop
  endfacet
  facet normal  2.946984e-01  9.507808e-01 -9.575346e-02
    outer loop
      vertex  -1.424539e-02  7.333540e-02  8.664380e-03
      vertex  -7.122696e-03  7.071354e-02  4.552087e-03
      vertex  -8.179527e-03  7.071354e-02  1.299499e-03
    endloop
  endfacet
  facet normal  2.946984e-01  9.507808e-01 -9.575343e-02
    outer loop
      vertex  -8.179527e-03  7.071354e-02  1.299499e-03
      vertex  -1.635905e-02  7.333540e-02  2.159205e-03
      vertex  -1.424539e-02  7.333540e-02  8.664380e-03
    endloop
  endfacet
  facet normal  2.302741e-01  9.507807e-01 -2.073397e-01
    outer loop
      vertex  -9.668573e-03  7.333540e-02  1.374745e-02
      vertex  -4.834286e-03  7.071354e-02  7.093623e-03
      vertex  -7.122696e-03  7.071354e-02  4.552087e-03
    endloop
  endfacet
  facet normal  2.302740e-01  9.507808e-01 -2.073397e-01
    outer loop
      vertex  -7.122696e-03  7.071354e-02  4.552087e-03
      vertex  -1.424539e-02  7.333540e-02  8.664380e-03
      vertex  -9.668573e-03  7.333540e-02  1.374745e-02
    endloop
  endfacet
  facet normal  1.260330e-01  9.507807e-01 -2.830752e-01
    outer loop
      vertex  -3.419969e-03  7.333540e-02  1.652950e-02
      vertex  -1.709985e-03  7.071354e-02  8.484649e-03
      vertex  -4.834286e-03  7.071354e-02  7.093623e-03
    endloop
  endfacet
  facet normal  1.260331e-01  9.507807e-01 -2.830752e-01
    outer loop
      vertex  -4.834286e-03  7.071354e-02  7.093623e-03
      vertex  -9.668573e-03  7.333540e-02  1.374745e-02
      vertex  -3.419969e-03  7.333540e-02  1.652950e-02
    endloop
  endfacet
  facet normal  0.000000e+00  9.507807e-01 -3.098644e-01
    outer loop
      vertex   3.419978e-03  7.333540e-02  1.652950e-02
      vertex   1.709989e-03  7.071354e-02  8.484649e-03
      vertex  -1.709985e-03  7.071354e-02  8.484649e-03
    endloop
  endfacet
  facet normal -9.428896e-08  9.507808e-01 -3.098643e-01
    outer loop
      vertex  -1.709985e-03  7.071354e-02  8.484649e-03
      vertex  -3.419969e-03  7.333540e-02  1.652950e-02
      vertex   3.419978e-03  7.333540e-02  1.652950e-02
    endloop
  endfacet
  facet normal -1.260332e-01  9.507808e-01 -2.830751e-01
    outer loop
      vertex   9.668579e-03  7.333540e-02  1.374745e-02
      vertex   4.834290e-03  7.071354e-02  7.093620e-03
      vertex   1.709989e-03  7.071354e-02  8.484649e-03
    endloop
  endfacet
  facet normal -1.260332e-01  9.507807e-01 -2.830752e-01
    outer loop
      vertex   1.709989e-03  7.071354e-02  8.484649e-03
      vertex   3.419978e-03  7.333540e-02  1.652950e-02
      vertex   9.668579e-03  7.333540e-02  1.374745e-02
    endloop
  endfacet
  facet normal -2.302741e-01  9.507808e-01 -2.073396e-01
    outer loop
      vertex   1.424540e-02  7.333540e-02  8.664373e-03
      vertex   7.122699e-03  7.071354e-02  4.552084e-03
      vertex   4.834290e-03  7.071354e-02  7.093620e-03
    endloop
  endfacet
  facet normal -2.302741e-01  9.507807e-01 -2.073397e-01
    outer loop
      vertex   4.834290e-03  7.071354e-02  7.093620e-03
      vertex   9.668579e-03  7.333540e-02  1.374745e-02
      vertex   1.424540e-02  7.333540e-02  8.664373e-03
    endloop
  endfacet
  facet normal -2.946985e-01  9.507807e-01 -9.575322e-02
    outer loop
      vertex   1.635905e-02  7.333540e-02  2.159196e-03
      vertex   8.179528e-03  7.071354e-02  1.299495e-03
      vertex   7.122699e-03  7.071354e-02  4.552084e-03
    endloop
  endfacet
  facet normal -2.946985e-01  9.507808e-01 -9.575315e-02
    outer loop
      vertex   7.122699e-03  7.071354e-02  4.552084e-03
      vertex   1.424540e-02  7.333540e-02  8.664373e-03
      vertex   1.635905e-02  7.333540e-02  2.159196e-03
    endloop
  endfacet
  facet normal -3.081668e-01  9.507808e-01  3.238983e-02
    outer loop
      vertex   1.564408e-02  7.333540e-02 -4.643281e-03
      vertex   7.822041e-03  7.071354e-02 -2.101743e-03
      vertex   8.179528e-03  7.071354e-02  1.299495e-03
    endloop
  endfacet
  facet normal -3.081669e-01  9.507808e-01  3.238974e-02
    outer loop
      vertex   8.179528e-03  7.071354e-02  1.299495e-03
      vertex   1.635905e-02  7.333540e-02  2.159196e-03
      vertex   1.564408e-02  7.333540e-02 -4.643281e-03
    endloop
  endfacet
  facet normal -2.683503e-01  9.507808e-01  1.549322e-01
    outer loop
      vertex   1.222411e-02  7.333540e-02 -1.056685e-02
      vertex   6.112054e-03  7.071354e-02 -5.063526e-03
      vertex   7.822041e-03  7.071354e-02 -2.101743e-03
    endloop
  endfacet
  facet normal -2.683503e-01  9.507807e-01  1.549322e-01
    outer loop
      vertex   7.822041e-03  7.071354e-02 -2.101743e-03
      vertex   1.564408e-02  7.333540e-02 -4.643281e-03
      vertex   1.222411e-02  7.333540e-02 -1.056685e-02
    endloop
  endfacet
  facet normal -1.821337e-01  9.507808e-01  2.506855e-01
    outer loop
      vertex   6.690473e-03  7.333540e-02 -1.458727e-02
      vertex   3.345236e-03  7.071354e-02 -7.073736e-03
      vertex   6.112054e-03  7.071354e-02 -5.063526e-03
    endloop
  endfacet
  facet normal -1.821336e-01  9.507808e-01  2.506855e-01
    outer loop
      vertex   6.112054e-03  7.071354e-02 -5.063526e-03
      vertex   1.222411e-02  7.333540e-02 -1.056685e-02
      vertex   6.690473e-03  7.333540e-02 -1.458727e-02
    endloop
  endfacet
  facet normal -6.442434e-02  9.507808e-01  3.030930e-01
    outer loop
      vertex   6.690473e-03  7.333540e-02 -1.458727e-02
      vertex  -7.190158e-10  7.333540e-02 -1.600937e-02
      vertex  -3.595079e-10  7.071354e-02 -7.784787e-03
    endloop
  endfacet
  facet normal -6.442427e-02  9.507808e-01  3.030931e-01
    outer loop
      vertex  -3.595079e-10  7.071354e-02 -7.784787e-03
      vertex   3.345236e-03  7.071354e-02 -7.073736e-03
      vertex   6.690473e-03  7.333540e-02 -1.458727e-02
    endloop
  endfacet
  facet normal -3.359038e-02 -9.868628e-01 -1.580306e-01
    outer loop
      vertex  -7.881582e-10  1.515210e-03 -2.041821e-02
      vertex  -3.322920e-10 -1.548310e-04 -9.989208e-03
      vertex  -4.241859e-03 -1.548310e-04 -9.087574e-03
    endloop
  endfacet
  facet normal -3.359038e-02 -9.868627e-01 -1.580305e-01
    outer loop
      vertex  -4.241859e-03 -1.548310e-04 -9.087574e-03
      vertex  -8.483717e-03  1.515210e-03 -1.861494e-02
      vertex  -7.881582e-10  1.515210e-03 -2.041821e-02
    endloop
  endfacet
  facet normal -9.496319e-02 -9.868627e-01 -1.307056e-01
    outer loop
      vertex  -1.550052e-02  1.515210e-03 -1.351693e-02
      vertex  -8.483717e-03  1.515210e-03 -1.861494e-02
      vertex  -4.241859e-03 -1.548310e-04 -9.087574e-03
    endloop
  endfacet
  facet normal -9.496321e-02 -9.868628e-01 -1.307056e-01
    outer loop
      vertex  -4.241859e-03 -1.548310e-04 -9.087574e-03
      vertex  -7.750261e-03 -1.548310e-04 -6.538569e-03
      vertex  -1.550052e-02  1.515210e-03 -1.351693e-02
    endloop
  endfacet
  facet normal -1.399156e-01 -9.868627e-01 -8.078083e-02
    outer loop
      vertex  -1.983714e-02  1.515205e-03 -6.005680e-03
      vertex  -1.550052e-02  1.515210e-03 -1.351693e-02
      vertex  -7.750261e-03 -1.548310e-04 -6.538569e-03
    endloop
  endfacet
  facet normal -1.399156e-01 -9.868627e-01 -8.078025e-02
    outer loop
      vertex  -7.750261e-03 -1.548310e-04 -6.538569e-03
      vertex  -9.918572e-03 -1.548310e-04 -2.782942e-03
      vertex  -1.983714e-02  1.515205e-03 -6.005680e-03
    endloop
  endfacet
  facet normal -1.606756e-01 -9.868628e-01 -1.688766e-02
    outer loop
      vertex  -2.074374e-02  1.515205e-03  2.620055e-03
      vertex  -1.983714e-02  1.515205e-03 -6.005680e-03
      vertex  -9.918572e-03 -1.548310e-04 -2.782942e-03
    endloop
  endfacet
  facet normal -1.606756e-01 -9.868628e-01 -1.688766e-02
    outer loop
      vertex  -9.918572e-03 -1.548310e-04 -2.782942e-03
      vertex  -1.037187e-02 -1.548310e-04  1.529925e-03
      vertex  -2.074374e-02  1.515205e-03  2.620055e-03
    endloop
  endfacet
  facet normal -1.536533e-01 -9.868628e-01  4.992504e-02
    outer loop
      vertex  -1.806356e-02  1.515205e-03  1.086880e-02
      vertex  -2.074374e-02  1.515205e-03  2.620055e-03
      vertex  -1.037187e-02 -1.548310e-04  1.529925e-03
    endloop
  endfacet
  facet normal -1.536533e-01 -9.868628e-01  4.992504e-02
    outer loop
      vertex  -1.037187e-02 -1.548310e-04  1.529925e-03
      vertex  -9.031780e-03 -1.548310e-04  5.654299e-03
      vertex  -1.806356e-02  1.515205e-03  1.086880e-02
    endloop
  endfacet
  facet normal -1.200629e-01 -9.868628e-01  1.081051e-01
    outer loop
      vertex  -1.226003e-02  1.515205e-03  1.731428e-02
      vertex  -1.806356e-02  1.515205e-03  1.086880e-02
      vertex  -9.031780e-03 -1.548310e-04  5.654299e-03
    endloop
  endfacet
  facet normal -1.200630e-01 -9.868628e-01  1.081051e-01
    outer loop
      vertex  -9.031780e-03 -1.548310e-04  5.654299e-03
      vertex  -6.130013e-03 -1.548310e-04  8.877039e-03
      vertex  -1.226003e-02  1.515205e-03  1.731428e-02
    endloop
  endfacet
  facet normal -6.571263e-02 -9.868628e-01  1.475930e-01
    outer loop
      vertex  -4.336618e-03  1.515205e-03  2.084201e-02
      vertex  -1.226003e-02  1.515205e-03  1.731428e-02
      vertex  -6.130013e-03 -1.548310e-04  8.877039e-03
    endloop
  endfacet
  facet normal -6.571259e-02 -9.868628e-01  1.475930e-01
    outer loop
      vertex  -6.130013e-03 -1.548310e-04  8.877039e-03
      vertex  -2.168309e-03 -1.548310e-04  1.064090e-02
      vertex  -4.336618e-03  1.515205e-03  2.084201e-02
    endloop
  endfacet
  facet normal  3.469635e-08 -9.868628e-01  1.615606e-01
    outer loop
      vertex   4.336629e-03  1.515205e-03  2.084201e-02
      vertex  -4.336618e-03  1.515205e-03  2.084201e-02
      vertex  -2.168309e-03 -1.548310e-04  1.064090e-02
    endloop
  endfacet
  facet normal  3.469635e-08 -9.868628e-01  1.615606e-01
    outer loop
      vertex  -2.168309e-03 -1.548310e-04  1.064090e-02
      vertex   2.168315e-03 -1.548310e-04  1.064090e-02
      vertex   4.336629e-03  1.515205e-03  2.084201e-02
    endloop
  endfacet
  facet normal  6.571273e-02 -9.868628e-01  1.475929e-01
    outer loop
      vertex   1.226003e-02  1.515205e-03  1.731427e-02
      vertex   4.336629e-03  1.515205e-03  2.084201e-02
      vertex   2.168315e-03 -1.548310e-04  1.064090e-02
    endloop
  endfacet
  facet normal  6.571273e-02 -9.868628e-01  1.475929e-01
    outer loop
      vertex   2.168315e-03 -1.548310e-04  1.064090e-02
      vertex   6.130018e-03 -1.548310e-04  8.877034e-03
      vertex   1.226003e-02  1.515205e-03  1.731427e-02
    endloop
  endfacet
  facet normal  1.200629e-01 -9.868628e-01  1.081051e-01
    outer loop
      vertex   1.806357e-02  1.515205e-03  1.086879e-02
      vertex   1.226003e-02  1.515205e-03  1.731427e-02
      vertex   6.130018e-03 -1.548310e-04  8.877034e-03
    endloop
  endfacet
  facet normal  1.200629e-01 -9.868628e-01  1.081051e-01
    outer loop
      vertex   6.130018e-03 -1.548310e-04  8.877034e-03
      vertex   9.031785e-03 -1.548310e-04  5.654294e-03
      vertex   1.806357e-02  1.515205e-03  1.086879e-02
    endloop
  endfacet
  facet normal  1.536533e-01 -9.868628e-01  4.992493e-02
    outer loop
      vertex   2.074375e-02  1.515205e-03  2.620044e-03
      vertex   1.806357e-02  1.515205e-03  1.086879e-02
      vertex   9.031785e-03 -1.548310e-04  5.654294e-03
    endloop
  endfacet
  facet normal  1.536533e-01 -9.868628e-01  4.992493e-02
    outer loop
      vertex   9.031785e-03 -1.548310e-04  5.654294e-03
      vertex   1.037187e-02 -1.548310e-04  1.529920e-03
      vertex   2.074375e-02  1.515205e-03  2.620044e-03
    endloop
  endfacet
  facet normal  1.606755e-01 -9.868628e-01 -1.688772e-02
    outer loop
      vertex   1.983714e-02  1.515205e-03 -6.005689e-03
      vertex   2.074375e-02  1.515205e-03  2.620044e-03
      vertex   1.037187e-02 -1.548310e-04  1.529920e-03
    endloop
  endfacet
  facet normal  1.606755e-01 -9.868628e-01 -1.688772e-02
    outer loop
      vertex   1.037187e-02 -1.548310e-04  1.529920e-03
      vertex   9.918572e-03 -1.548310e-04 -2.782947e-03
      vertex   1.983714e-02  1.515205e-03 -6.005689e-03
    endloop
  endfacet
  facet normal  1.399154e-01 -9.868627e-01 -8.078077e-02
    outer loop
      vertex   1.550052e-02  1.515210e-03 -1.351694e-02
      vertex   1.983714e-02  1.515205e-03 -6.005689e-03
      vertex   9.918572e-03 -1.548310e-04 -2.782947e-03
    endloop
  endfacet
  facet normal  1.399159e-01 -9.868628e-01 -8.078053e-02
    outer loop
      vertex   9.918572e-03 -1.548310e-04 -2.782947e-03
      vertex   7.750259e-03 -1.548310e-04 -6.538574e-03
      vertex   1.550052e-02  1.515210e-03 -1.351694e-02
    endloop
  endfacet
  facet normal  9.496306e-02 -9.868628e-01 -1.307057e-01
    outer loop
      vertex   8.483710e-03  1.515210e-03 -1.861494e-02
      vertex   1.550052e-02  1.515210e-03 -1.351694e-02
      vertex   7.750259e-03 -1.548310e-04 -6.538574e-03
    endloop
  endfacet
  facet normal  9.496307e-02 -9.868627e-01 -1.307057e-01
    outer loop
      vertex   7.750259e-03 -1.548310e-04 -6.538574e-03
      vertex   4.241854e-03 -1.548310e-04 -9.087575e-03
      vertex   8.483710e-03  1.515210e-03 -1.861494e-02
    endloop
  endfacet
  facet normal  3.359041e-02 -9.868627e-01 -1.580305e-01
    outer loop
      vertex   8.483710e-03  1.515210e-03 -1.861494e-02
      vertex   4.241854e-03 -1.548310e-04 -9.087575e-03
      vertex  -3.322920e-10 -1.548310e-04 -9.989208e-03
    endloop
  endfacet
  facet normal  3.359039e-02 -9.868627e-01 -1.580305e-01
    outer loop
      vertex  -3.322920e-10 -1.548310e-04 -9.989208e-03
      vertex  -7.881582e-10  1.515210e-03 -2.041821e-02
      vertex   8.483710e-03  1.515210e-03 -1.861494e-02
    endloop
  endfacet
  facet normal  8.212349e-01 -2.762432e-01 -4.992625e-01
    outer loop
      vertex   1.172320e-03  6.858250e-02  4.300828e-04
      vertex   5.287388e-04  6.875495e-02 -7.239550e-04
      vertex   1.351052e-03  7.182387e-02 -1.069374e-03
    endloop
  endfacet
  facet normal  8.212340e-01 -2.762436e-01 -4.992637e-01
    outer loop
      vertex   1.351052e-03  7.182387e-02 -1.069374e-03
      vertex   1.994633e-03  7.165141e-02  8.466386e-05
      vertex   1.172320e-03  6.858250e-02  4.300828e-04
    endloop
  endfacet
  facet normal -2.797375e-02 -1.043992e-01 -9.941420e-01
    outer loop
      vertex   5.287388e-04  6.875495e-02 -7.239550e-04
      vertex  -7.584231e-04  6.909984e-02 -7.239550e-04
      vertex   6.388953e-05  7.216876e-02 -1.069374e-03
    endloop
  endfacet
  facet normal -2.797354e-02 -1.043992e-01 -9.941420e-01
    outer loop
      vertex   6.388953e-05  7.216876e-02 -1.069374e-03
      vertex   1.351052e-03  7.182387e-02 -1.069374e-03
      vertex   5.287388e-04  6.875495e-02 -7.239550e-04
    endloop
  endfacet
  facet normal -8.493312e-01  1.713839e-01 -4.992635e-01
    outer loop
      vertex  -7.584231e-04  6.909984e-02 -7.239550e-04
      vertex  -1.402004e-03  6.927229e-02  4.300830e-04
      vertex  -5.796909e-04  7.234120e-02  8.466403e-05
    endloop
  endfacet
  facet normal -8.493320e-01  1.713836e-01 -4.992621e-01
    outer loop
      vertex  -5.796909e-04  7.234120e-02  8.466403e-05
      vertex   6.388953e-05  7.216876e-02 -1.069374e-03
      vertex  -7.584231e-04  6.909984e-02 -7.239550e-04
    endloop
  endfacet
  facet normal -8.212340e-01  2.762431e-01  4.992639e-01
    outer loop
      vertex  -1.402004e-03  6.927229e-02  4.300830e-04
      vertex  -7.584231e-04  6.909984e-02  1.584121e-03
      vertex   6.389045e-05  7.216876e-02  1.238702e-03
    endloop
  endfacet
  facet normal -8.212346e-01  2.762438e-01  4.992625e-01
    outer loop
      vertex   6.389045e-05  7.216876e-02  1.238702e-03
      vertex  -5.796909e-04  7.234120e-02  8.466403e-05
      vertex  -1.402004e-03  6.927229e-02  4.300830e-04
    endloop
  endfacet
  facet normal  2.797356e-02  1.043992e-01  9.941420e-01
    outer loop
      vertex  -7.584231e-04  6.909984e-02  1.584121e-03
      vertex   5.287386e-04  6.875495e-02  1.584121e-03
      vertex   1.351052e-03  7.182387e-02  1.238702e-03
    endloop
  endfacet
  facet normal  2.797356e-02  1.043992e-01  9.941420e-01
    outer loop
      vertex   1.351052e-03  7.182387e-02  1.238702e-03
      vertex   6.389045e-05  7.216876e-02  1.238702e-03
      vertex  -7.584231e-04  6.909984e-02  1.584121e-03
    endloop
  endfacet
  facet normal  8.493316e-01 -1.713839e-01  4.992628e-01
    outer loop
      vertex   5.287386e-04  6.875495e-02  1.584121e-03
      vertex   1.172320e-03  6.858250e-02  4.300828e-04
      vertex   1.994633e-03  7.165141e-02  8.466386e-05
    endloop
  endfacet
  facet normal  8.493314e-01 -1.713836e-01  4.992633e-01
    outer loop
      vertex   1.994633e-03  7.165141e-02  8.466386e-05
      vertex   1.351052e-03  7.182387e-02  1.238702e-03
      vertex   5.287386e-04  6.875495e-02  1.584121e-03
    endloop
  endfacet
  facet normal  8.213846e-01 -2.757713e-01 -4.992771e-01
    outer loop
      vertex   1.994633e-03  7.165141e-02  8.466386e-05
      vertex   1.351052e-03  7.182387e-02 -1.069374e-03
      vertex   2.173365e-03  7.489277e-02 -1.411633e-03
    endloop
  endfacet
  facet normal  8.213854e-01 -2.757708e-01 -4.992759e-01
    outer loop
      vertex   2.173365e-03  7.489277e-02 -1.411633e-03
      vertex   2.816946e-03  7.472033e-02 -2.575945e-04
      vertex   1.994633e-03  7.165141e-02  8.466386e-05
    endloop
  endfacet
  facet normal -2.772061e-02 -1.034552e-01 -9.942477e-01
    outer loop
      vertex   1.351052e-03  7.182387e-02 -1.069374e-03
      vertex   6.388953e-05  7.216876e-02 -1.069374e-03
      vertex   8.862031e-04  7.523767e-02 -1.411633e-03
    endloop
  endfacet
  facet normal -2.772081e-02 -1.034552e-01 -9.942477e-01
    outer loop
      vertex   8.862031e-04  7.523767e-02 -1.411633e-03
      vertex   2.173365e-03  7.489277e-02 -1.411633e-03
      vertex   1.351052e-03  7.182387e-02 -1.069374e-03
    endloop
  endfacet
  facet normal -8.492264e-01  1.718680e-01 -4.992756e-01
    outer loop
      vertex   6.388953e-05  7.216876e-02 -1.069374e-03
      vertex  -5.796909e-04  7.234120e-02  8.466403e-05
      vertex   2.426221e-04  7.541012e-02 -2.575943e-04
    endloop
  endfacet
  facet normal -8.492255e-01  1.718683e-01 -4.992767e-01
    outer loop
      vertex   2.426221e-04  7.541012e-02 -2.575943e-04
      vertex   8.862031e-04  7.523767e-02 -1.411633e-03
      vertex   6.388953e-05  7.216876e-02 -1.069374e-03
    endloop
  endfacet
  facet normal -8.213853e-01  2.757713e-01  4.992759e-01
    outer loop
      vertex  -5.796909e-04  7.234120e-02  8.466403e-05
      vertex   6.389045e-05  7.216876e-02  1.238702e-03
      vertex   8.862035e-04  7.523767e-02  8.964436e-04
    endloop
  endfacet
  facet normal -8.213847e-01  2.757706e-01  4.992773e-01
    outer loop
      vertex   8.862035e-04  7.523767e-02  8.964436e-04
      vertex   2.426221e-04  7.541012e-02 -2.575943e-04
      vertex  -5.796909e-04  7.234120e-02  8.466403e-05
    endloop
  endfacet
  facet normal  2.772063e-02  1.034552e-01  9.942478e-01
    outer loop
      vertex   6.389045e-05  7.216876e-02  1.238702e-03
      vertex   1.351052e-03  7.182387e-02  1.238702e-03
      vertex   2.173365e-03  7.489277e-02  8.964436e-04
    endloop
  endfacet
  facet normal  2.772078e-02  1.034551e-01  9.942478e-01
    outer loop
      vertex   2.173365e-03  7.489277e-02  8.964436e-04
      vertex   8.862035e-04  7.523767e-02  8.964436e-04
      vertex   6.389045e-05  7.216876e-02  1.238702e-03
    endloop
  endfacet
  facet normal  8.492257e-01 -1.718678e-01  4.992766e-01
    outer loop
      vertex   1.351052e-03  7.182387e-02  1.238702e-03
      vertex   1.994633e-03  7.165141e-02  8.466386e-05
      vertex   2.816946e-03  7.472033e-02 -2.575945e-04
    endloop
  endfacet
  facet normal  8.492259e-01 -1.718683e-01  4.992759e-01
    outer loop
      vertex   2.816946e-03  7.472033e-02 -2.575945e-04
      vertex   2.173365e-03  7.489277e-02  8.964436e-04
      vertex   1.351052e-03  7.182387e-02  1.238702e-03
    endloop
  endfacet
  facet normal  8.317356e-01 -2.414472e-01 -4.999191e-01
    outer loop
      vertex   2.816946e-03  7.472033e-02 -2.575945e-04
      vertex   2.173365e-03  7.489277e-02 -1.411633e-03
      vertex   2.995679e-03  7.796169e-02 -1.525719e-03
    endloop
  endfacet
  facet normal  8.317359e-01 -2.414471e-01 -4.999187e-01
    outer loop
      vertex   2.995679e-03  7.796169e-02 -1.525719e-03
      vertex   3.639260e-03  7.778925e-02 -3.716804e-04
      vertex   2.816946e-03  7.472033e-02 -2.575945e-04
    endloop
  endfacet
  facet normal -9.287722e-03 -3.466217e-02 -9.993560e-01
    outer loop
      vertex   2.173365e-03  7.489277e-02 -1.411633e-03
      vertex   8.862031e-04  7.523767e-02 -1.411633e-03
      vertex   1.708516e-03  7.830659e-02 -1.525719e-03
    endloop
  endfacet
  facet normal -9.287719e-03 -3.466217e-02 -9.993560e-01
    outer loop
      vertex   1.708516e-03  7.830659e-02 -1.525719e-03
      vertex   2.995679e-03  7.796169e-02 -1.525719e-03
      vertex   2.173365e-03  7.489277e-02 -1.411633e-03
    endloop
  endfacet
  facet normal -8.410273e-01  2.067686e-01 -4.999200e-01
    outer loop
      vertex   8.862031e-04  7.523767e-02 -1.411633e-03
      vertex   2.426221e-04  7.541012e-02 -2.575943e-04
      vertex   1.064935e-03  7.847903e-02 -3.716803e-04
    endloop
  endfacet
  facet normal -8.410282e-01  2.067683e-01 -4.999186e-01
    outer loop
      vertex   1.064935e-03  7.847903e-02 -3.716803e-04
      vertex   1.708516e-03  7.830659e-02 -1.525719e-03
      vertex   8.862031e-04  7.523767e-02 -1.411633e-03
    endloop
  endfacet
  facet normal -8.317350e-01  2.414469e-01  4.999203e-01
    outer loop
      vertex   2.426221e-04  7.541012e-02 -2.575943e-04
      vertex   8.862035e-04  7.523767e-02  8.964436e-04
      vertex   1.708517e-03  7.830659e-02  7.823575e-04
    endloop
  endfacet
  facet normal -8.317356e-01  2.414477e-01  4.999190e-01
    outer loop
      vertex   1.708517e-03  7.830659e-02  7.823575e-04
      vertex   1.064935e-03  7.847903e-02 -3.716803e-04
      vertex   2.426221e-04  7.541012e-02 -2.575943e-04
    endloop
  endfacet
  facet normal  9.287705e-03  3.466210e-02  9.993560e-01
    outer loop
      vertex   8.862035e-04  7.523767e-02  8.964436e-04
      vertex   2.173365e-03  7.489277e-02  8.964436e-04
      vertex   2.995678e-03  7.796169e-02  7.823576e-04
    endloop
  endfacet
  facet normal  9.287667e-03  3.466213e-02  9.993560e-01
    outer loop
      vertex   2.995678e-03  7.796169e-02  7.823576e-04
      vertex   1.708517e-03  7.830659e-02  7.823575e-04
      vertex   8.862035e-04  7.523767e-02  8.964436e-04
    endloop
  endfacet
  facet normal  8.410279e-01 -2.067682e-01  4.999190e-01
    outer loop
      vertex   2.173365e-03  7.489277e-02  8.964436e-04
      vertex   2.816946e-03  7.472033e-02 -2.575945e-04
      vertex   3.639260e-03  7.778925e-02 -3.716804e-04
    endloop
  endfacet
  facet normal  8.410279e-01 -2.067682e-01  4.999190e-01
    outer loop
      vertex   3.639260e-03  7.778925e-02 -3.716804e-04
      vertex   2.995678e-03  7.796169e-02  7.823576e-04
      vertex   2.173365e-03  7.489277e-02  8.964436e-04
    endloop
  endfacet
  facet normal -2.588247e-01 -9.659243e-01 -0.000000e+00
    outer loop
      vertex  -7.584231e-04  6.909984e-02  1.584121e-03
      vertex  -1.402004e-03  6.927229e-02  4.300830e-04
      vertex  -7.584231e-04  6.909984e-02 -7.239550e-04
    endloop
  endfacet
  facet normal -2.588196e-01 -9.659257e-01  3.252770e-06
    outer loop
      vertex  -7.584231e-04  6.909984e-02 -7.239550e-04
      vertex   5.287388e-04  6.875495e-02 -7.239550e-04
      vertex   1.172320e-03  6.858250e-02  4.300828e-04
    endloop
  endfacet
  facet normal -2.588179e-01 -9.659261e-01 -0.000000e+00
    outer loop
      vertex  -7.584231e-04  6.909984e-02  1.584121e-03
      vertex  -7.584231e-04  6.909984e-02 -7.239550e-04
      vertex   1.172320e-03  6.858250e-02  4.300828e-04
    endloop
  endfacet
  facet normal -2.588197e-01 -9.659257e-01 -3.271252e-06
    outer loop
      vertex   5.287386e-04  6.875495e-02  1.584121e-03
      vertex  -7.584231e-04  6.909984e-02  1.584121e-03
      vertex   1.172320e-03  6.858250e-02  4.300828e-04
    endloop
  endfacet
  facet normal  2.588144e-01  9.659271e-01 -5.221658e-08
    outer loop
      vertex   1.708516e-03  7.830659e-02 -1.525719e-03
      vertex   1.064935e-03  7.847903e-02 -3.716803e-04
      vertex   1.708517e-03  7.830659e-02  7.823575e-04
    endloop
  endfacet
  facet normal  2.588196e-01  9.659257e-01  3.178843e-06
    outer loop
      vertex   1.708517e-03  7.830659e-02  7.823575e-04
      vertex   2.995678e-03  7.796169e-02  7.823576e-04
      vertex   3.639260e-03  7.778925e-02 -3.716804e-04
    endloop
  endfacet
  facet normal  2.588179e-01  9.659262e-01 -5.221727e-08
    outer loop
      vertex   1.708516e-03  7.830659e-02 -1.525719e-03
      vertex   1.708517e-03  7.830659e-02  7.823575e-04
      vertex   3.639260e-03  7.778925e-02 -3.716804e-04
    endloop
  endfacet
  facet normal  2.588195e-01  9.659256e-01 -3.040228e-06
    outer loop
      vertex   2.995679e-03  7.796169e-02 -1.525719e-03
      vertex   1.708516e-03  7.830659e-02 -1.525719e-03
      vertex   3.639260e-03  7.778925e-02 -3.716804e-04
    endloop
  endfacet
endsolid vcg
